<?xml version="1.0" encoding="UTF-8" standalone="no"?><!DOCTYPE svg PUBLIC "-//W3C//DTD SVG 1.1//EN" "http://www.w3.org/Graphics/SVG/1.1/DTD/svg11.dtd"><svg width="100%" height="100%" viewBox="0 0 341 228" version="1.1" xmlns="http://www.w3.org/2000/svg" xmlns:xlink="http://www.w3.org/1999/xlink" xml:space="preserve" style="fill-rule:evenodd;clip-rule:evenodd;stroke-linejoin:round;stroke-miterlimit:1.41421;"><clipPath id="_clip1"><path id="Hobby-Site" d="M340.343,4.827c0,-1.157 -0.46,-2.267 -1.278,-3.085c-0.818,-0.818 -1.927,-1.277 -3.084,-1.277c-36.814,0 -295.117,0 -331.446,0c-1.125,0 -2.204,0.447 -3,1.242c-0.795,0.796 -1.242,1.875 -1.242,3c0,31.088 0,222.53 0,222.53l340.05,0c0,0 0,-190.954 0,-222.41Z"/></clipPath><g clip-path="url(#_clip1)"><rect id="Container" x="0.293" y="17.473" width="340.05" height="209.764" style="fill:#fff;"/><clipPath id="_clip2"><rect x="0.293" y="17.473" width="340.05" height="209.764"/></clipPath><g clip-path="url(#_clip2)"><rect id="Jumbotron" x="0.293" y="159.205" width="340.157" height="68.031" style="fill:#ffa726;"/><g id="Text"><rect x="95.073" y="184.717" width="165.953" height="3.625" style="fill:#b36a00;"/><rect x="79.609" y="193.418" width="181.417" height="3.878" style="fill:#b36a00;"/><rect x="79.609" y="202.719" width="181.417" height="3.878" style="fill:#b36a00;"/><rect x="79.609" y="212.02" width="181.417" height="3.878" style="fill:#b36a00;"/><rect x="147.694" y="170.544" width="45.354" height="5.669" style="fill:#b36a00;"/></g><g id="Text1"><g><rect x="34.309" y="113.851" width="68.031" height="3.102" style="fill:#d0d0d0;"/><rect x="34.309" y="119.131" width="68.031" height="3.102" style="fill:#d0d0d0;"/><rect x="34.309" y="124.891" width="68.031" height="3.102" style="fill:#d0d0d0;"/><rect x="34.309" y="130.651" width="68.031" height="3.102" style="fill:#d0d0d0;"/></g><g><rect x="136.356" y="113.851" width="68.031" height="3.102" style="fill:#d0d0d0;"/><rect x="136.356" y="119.131" width="68.031" height="3.102" style="fill:#d0d0d0;"/><rect x="136.356" y="124.891" width="68.031" height="3.102" style="fill:#d0d0d0;"/><rect x="136.356" y="130.651" width="68.031" height="3.102" style="fill:#d0d0d0;"/></g><g><rect x="238.403" y="113.851" width="68.031" height="3.102" style="fill:#d0d0d0;"/><rect x="238.403" y="119.131" width="68.031" height="3.102" style="fill:#d0d0d0;"/><rect x="238.403" y="124.891" width="68.031" height="3.102" style="fill:#d0d0d0;"/><rect x="238.403" y="130.651" width="68.031" height="3.102" style="fill:#d0d0d0;"/></g></g><g id="Image"><rect x="34.416" y="57.158" width="67.924" height="45.354" style="fill:#72d658;"/><rect x="238.619" y="57.158" width="67.924" height="45.354" style="fill:#72d658;"/><rect x="136.356" y="57.158" width="67.924" height="45.354" style="fill:#72d658;"/></g><g id="Nav"><path id="Line" d="M0.401,17.233l340.049,0" style="fill:none;stroke-width:0.5px;stroke:#9d9d9d;"/><rect x="300.819" y="28.811" width="28.346" height="5.669" style="fill:#ffa726;"/><rect x="261.134" y="28.811" width="28.346" height="5.669" style="fill:#ffa726;"/><rect x="221.449" y="28.811" width="28.147" height="5.669" style="fill:#ffa726;"/><rect x="11.685" y="28.811" width="33.962" height="5.669" style="fill:#ffa726;"/></g></g><rect id="Window-head" x="0.293" y="0.465" width="340.157" height="17.008" style="fill:#d9d8d9;"/><clipPath id="_clip3"><rect x="0.293" y="0.465" width="340.157" height="17.008"/></clipPath><g clip-path="url(#_clip3)"><g id="Button"><circle cx="12.046" cy="8.865" r="3.489" style="fill:#fe6058;"/><circle cx="22.953" cy="8.865" r="3.489" style="fill:#ffbd2e;"/><circle cx="33.894" cy="9.072" r="3.489" style="fill:#29ca42;"/></g><path id="Line1" d="M0.401,17.233l340.049,0" style="fill:none;stroke-width:0.5px;stroke:#9d9d9d;"/></g></g><path d="M340.343,4.827c0,-1.157 -0.46,-2.267 -1.278,-3.085c-0.818,-0.818 -1.927,-1.277 -3.084,-1.277c-36.814,0 -295.117,0 -331.446,0c-1.125,0 -2.204,0.447 -3,1.242c-0.795,0.796 -1.242,1.875 -1.242,3c0,31.088 0,222.53 0,222.53l340.05,0c0,0 0,-190.954 0,-222.41Z" style="fill:none;stroke-width:0.3px;stroke:#808080;"/></svg>