<?xml version="1.0" encoding="UTF-8" standalone="no"?><!DOCTYPE svg PUBLIC "-//W3C//DTD SVG 1.1//EN" "http://www.w3.org/Graphics/SVG/1.1/DTD/svg11.dtd"><svg width="100%" height="100%" viewBox="0 0 341 228" version="1.1" xmlns="http://www.w3.org/2000/svg" xmlns:xlink="http://www.w3.org/1999/xlink" xml:space="preserve" style="fill-rule:evenodd;clip-rule:evenodd;stroke-linejoin:round;stroke-miterlimit:1.41421;"><clipPath id="_clip1"><path id="Profile-Site" d="M340.343,4.655c0,-1.157 -0.46,-2.266 -1.278,-3.085c-0.818,-0.818 -1.927,-1.277 -3.084,-1.277c-36.814,0 -295.117,0 -331.446,0c-1.125,0 -2.204,0.447 -3,1.242c-0.795,0.796 -1.242,1.875 -1.242,3c0,31.088 0,222.53 0,222.53l340.05,0c0,0 0,-190.954 0,-222.41Z"/></clipPath><g clip-path="url(#_clip1)"><rect id="Container" x="0.293" y="17.301" width="340.05" height="209.764" style="fill:#fff;"/><clipPath id="_clip2"><rect x="0.293" y="17.301" width="340.05" height="209.764"/></clipPath><g clip-path="url(#_clip2)"><rect id="Section" x="0.293" y="17.301" width="340.157" height="104.882" style="fill:#29aad4;"/><g id="Profile"><circle id="Background" cx="170.318" cy="122.183" r="26.011" style="fill:#ffbe59;"/><path id="Photo" d="M170.313,105.387c14.374,0.066 11.383,16.325 5.525,23.154c-3.842,4.479 18.64,4.951 15.316,9.309c-4.772,6.26 -12.332,10.316 -20.841,10.343l0,0l-0.041,0l-0.041,0l0,0c-8.509,-0.027 -16.069,-4.083 -20.841,-10.343c-3.324,-4.358 19.158,-4.83 15.316,-9.309c-5.858,-6.829 -8.849,-23.088 5.525,-23.154l0,0l0.041,0l0.041,0l0,0Z" style="fill:#ffeccd;"/></g><g id="Text"><rect x="95.073" y="181.71" width="165.953" height="2.9" style="fill:#a5a5a5;"/><rect x="79.609" y="188.67" width="181.417" height="3.102" style="fill:#a5a5a5;"/><rect x="79.609" y="196.11" width="181.417" height="3.102" style="fill:#a5a5a5;"/><rect x="79.609" y="203.55" width="181.417" height="3.102" style="fill:#a5a5a5;"/><rect x="131.412" y="159.033" width="77.811" height="5.669" style="fill:#a5a5a5;"/></g><g id="Nav"><rect x="300.819" y="28.639" width="28.346" height="5.669" style="fill:#2c8792;"/><rect x="261.134" y="28.639" width="28.346" height="5.669" style="fill:#2c8792;"/><rect x="221.449" y="28.639" width="28.147" height="5.669" style="fill:#2c8792;"/><rect x="11.685" y="28.639" width="33.962" height="5.669" style="fill:#2c8792;"/></g></g><rect id="Window-head" x="0.293" y="0.293" width="340.157" height="17.008" style="fill:#d9d8d9;"/><clipPath id="_clip3"><rect x="0.293" y="0.293" width="340.157" height="17.008"/></clipPath><g clip-path="url(#_clip3)"><g id="Button"><circle cx="12.046" cy="8.693" r="3.489" style="fill:#fe6058;"/><circle cx="22.953" cy="8.693" r="3.489" style="fill:#ffbd2e;"/><circle cx="33.894" cy="8.9" r="3.489" style="fill:#29ca42;"/></g><path id="Line" d="M0.401,17.061l340.049,0" style="fill:none;stroke-width:0.5px;stroke:#9d9d9d;"/></g></g><path d="M340.343,4.655c0,-1.157 -0.46,-2.266 -1.278,-3.085c-0.818,-0.818 -1.927,-1.277 -3.084,-1.277c-36.814,0 -295.117,0 -331.446,0c-1.125,0 -2.204,0.447 -3,1.242c-0.795,0.796 -1.242,1.875 -1.242,3c0,31.088 0,222.53 0,222.53l340.05,0c0,0 0,-190.954 0,-222.41Z" style="fill:none;stroke-width:0.3px;stroke:#808080;"/></svg>