<?xml version="1.0" encoding="UTF-8" standalone="no"?><!DOCTYPE svg PUBLIC "-//W3C//DTD SVG 1.1//EN" "http://www.w3.org/Graphics/SVG/1.1/DTD/svg11.dtd"><svg width="100%" height="100%" viewBox="0 0 341 228" version="1.1" xmlns="http://www.w3.org/2000/svg" xmlns:xlink="http://www.w3.org/1999/xlink" xml:space="preserve" style="fill-rule:evenodd;clip-rule:evenodd;stroke-linecap:round;stroke-linejoin:round;stroke-miterlimit:1.41421;"><clipPath id="_clip1"><path id="Shop-Site" d="M340.45,4.721c0,-1.157 -0.459,-2.266 -1.277,-3.084c-0.818,-0.818 -1.928,-1.278 -3.085,-1.278c-36.813,0 -295.116,0 -331.445,0c-1.125,0 -2.204,0.447 -3,1.243c-0.795,0.795 -1.242,1.874 -1.242,2.999c0,31.088 0,222.53 0,222.53l340.049,0c0,0 0,-190.954 0,-222.41Z"/></clipPath><g clip-path="url(#_clip1)"><rect id="Container" x="0.401" y="17.367" width="340.05" height="209.764" style="fill:#fff;"/><g id="Product"><g id="Text"><g><rect x="34.416" y="193.115" width="51.024" height="3.102" style="fill:#d0d0d0;"/><rect x="34.416" y="198.395" width="51.024" height="3.102" style="fill:#d0d0d0;"/><rect x="34.416" y="204.155" width="51.024" height="3.102" style="fill:#d0d0d0;"/><rect x="34.416" y="209.915" width="51.024" height="3.102" style="fill:#d0d0d0;"/></g><g><rect x="108.117" y="193.115" width="51.024" height="3.102" style="fill:#d0d0d0;"/><rect x="108.117" y="198.395" width="51.024" height="3.102" style="fill:#d0d0d0;"/><rect x="108.117" y="204.155" width="51.024" height="3.102" style="fill:#d0d0d0;"/><rect x="108.117" y="209.915" width="51.024" height="3.102" style="fill:#d0d0d0;"/></g><g><rect x="181.818" y="193.115" width="51.024" height="3.102" style="fill:#d0d0d0;"/><rect x="181.818" y="198.395" width="51.024" height="3.102" style="fill:#d0d0d0;"/><rect x="181.818" y="204.155" width="51.024" height="3.102" style="fill:#d0d0d0;"/><rect x="181.818" y="209.915" width="51.024" height="3.102" style="fill:#d0d0d0;"/></g><g><rect x="255.519" y="193.115" width="51.024" height="3.102" style="fill:#d0d0d0;"/><rect x="255.519" y="198.395" width="51.024" height="3.102" style="fill:#d0d0d0;"/><rect x="255.519" y="204.155" width="51.024" height="3.102" style="fill:#d0d0d0;"/><rect x="255.519" y="209.915" width="51.024" height="3.102" style="fill:#d0d0d0;"/></g></g><g id="Image"><rect x="34.416" y="156.265" width="51.024" height="28.346" style="fill:#29aad4;"/><rect x="34.416" y="156.265" width="51.024" height="28.346" style="fill:#29aad4;"/><rect x="108.117" y="156.265" width="51.024" height="28.346" style="fill:#29aad4;"/><rect x="181.818" y="156.265" width="51.024" height="28.346" style="fill:#29aad4;"/><rect x="255.519" y="156.265" width="51.024" height="28.346" style="fill:#29aad4;"/></g></g><rect id="Image1" x="34.416" y="45.713" width="272.126" height="90.709" style="fill:#ff8b7f;"/><g id="arrow"><path d="M23.093,87.255l0.096,0.01l0.095,0.015l0.093,0.022l0.093,0.027l0.09,0.034l0.088,0.039l0.085,0.044l0.082,0.05l0.079,0.055l0.075,0.06l0.071,0.065l0.067,0.069l0.062,0.074l0.057,0.077l0.053,0.08l0.047,0.084l0.041,0.087l0.036,0.089l0.031,0.091l0.024,0.093l0.018,0.095l0.012,0.095l0.006,0.096l0,0.096l-0.006,0.096l-0.013,0.096l-0.018,0.094l-0.025,0.093l-0.03,0.091l-0.036,0.089l-0.042,0.087l-0.047,0.084l-0.053,0.08l-4.985,7.125l4.985,7.125l0.053,0.08l0.047,0.084l0.042,0.087l0.036,0.089l0.03,0.091l0.025,0.093l0.018,0.094l0.013,0.096l0.006,0.096l0,0.096l-0.006,0.096l-0.012,0.095l-0.018,0.095l-0.024,0.093l-0.031,0.091l-0.036,0.089l-0.041,0.087l-0.047,0.084l-0.053,0.08l-0.057,0.077l-0.062,0.074l-0.067,0.069l-0.071,0.065l-0.075,0.06l-0.079,0.055l-0.082,0.05l-0.085,0.044l-0.088,0.039l-0.09,0.034l-0.093,0.027l-0.093,0.022l-0.095,0.015l-0.096,0.01l-0.096,0.003l-0.096,-0.003l-0.096,-0.009l-0.095,-0.015l-0.094,-0.022l-0.092,-0.027l-0.09,-0.033l-0.088,-0.039l-0.085,-0.044l-0.083,-0.05l-0.079,-0.055l-0.075,-0.06l-0.071,-0.064l-0.067,-0.069l-0.062,-0.073l-0.058,-0.077l-5.587,-7.985l-0.052,-0.081l-0.048,-0.084l-0.042,-0.086l-0.036,-0.09l-0.03,-0.091l-0.025,-0.093l-0.018,-0.095l-0.013,-0.096l-0.006,-0.096l0,-0.096l0.006,-0.096l0.013,-0.096l0.018,-0.095l0.025,-0.093l0.03,-0.091l0.036,-0.089l0.042,-0.087l0.048,-0.084l0.052,-0.081l5.587,-7.985l0.058,-0.077l0.062,-0.073l0.067,-0.069l0.071,-0.064l0.075,-0.06l0.079,-0.055l0.083,-0.05l0.085,-0.044l0.088,-0.039l0.09,-0.033l0.092,-0.027l0.094,-0.022l0.095,-0.015l0.096,-0.009l0.096,-0.003l0.096,0.003Z" style="fill:#a3a3a3;"/><path d="M318.058,87.255l0.096,0.009l0.095,0.015l0.093,0.022l0.093,0.027l0.09,0.033l0.088,0.039l0.085,0.044l0.082,0.05l0.079,0.055l0.076,0.06l0.071,0.064l0.067,0.069l0.062,0.073l0.058,0.077l5.586,7.985l0.053,0.081l0.047,0.084l0.042,0.087l0.037,0.089l0.03,0.091l0.024,0.093l0.019,0.095l0.012,0.096l0.006,0.096l0,0.096l-0.006,0.096l-0.012,0.096l-0.019,0.095l-0.024,0.093l-0.03,0.091l-0.037,0.09l-0.042,0.086l-0.047,0.084l-0.053,0.081l-5.586,7.985l-0.058,0.077l-0.062,0.073l-0.067,0.069l-0.071,0.064l-0.076,0.06l-0.079,0.055l-0.082,0.05l-0.085,0.044l-0.088,0.039l-0.09,0.033l-0.093,0.027l-0.093,0.022l-0.095,0.015l-0.096,0.009l-0.096,0.003l-0.096,-0.003l-0.096,-0.01l-0.095,-0.015l-0.094,-0.022l-0.092,-0.027l-0.09,-0.034l-0.088,-0.039l-0.085,-0.044l-0.082,-0.05l-0.079,-0.055l-0.075,-0.06l-0.071,-0.065l-0.067,-0.069l-0.062,-0.074l-0.058,-0.077l-0.052,-0.08l-0.047,-0.084l-0.042,-0.087l-0.036,-0.089l-0.03,-0.091l-0.024,-0.093l-0.018,-0.095l-0.012,-0.095l-0.006,-0.096l0,-0.096l0.006,-0.096l0.012,-0.096l0.019,-0.094l0.024,-0.093l0.031,-0.091l0.036,-0.089l0.042,-0.087l0.047,-0.084l0.053,-0.08l4.985,-7.125l-4.985,-7.125l-0.053,-0.08l-0.047,-0.084l-0.042,-0.087l-0.036,-0.089l-0.031,-0.091l-0.024,-0.093l-0.019,-0.094l-0.012,-0.096l-0.006,-0.096l0,-0.096l0.006,-0.096l0.012,-0.095l0.018,-0.095l0.024,-0.093l0.03,-0.091l0.036,-0.089l0.042,-0.087l0.047,-0.084l0.052,-0.08l0.058,-0.077l0.062,-0.074l0.067,-0.069l0.071,-0.065l0.075,-0.06l0.079,-0.055l0.082,-0.05l0.085,-0.044l0.088,-0.039l0.09,-0.034l0.092,-0.027l0.094,-0.022l0.095,-0.015l0.096,-0.01l0.096,-0.003l0.096,0.003Z" style="fill:#a3a3a3;"/></g><g id="Index"><circle cx="164.981" cy="142.091" r="1.643" style="fill:#f6f6f6;stroke-width:0.5px;stroke:#656565;"/><circle cx="170.643" cy="142.091" r="1.643" style="fill:#9a9a9a;stroke-width:0.5px;stroke:#656565;"/><circle cx="175.87" cy="142.091" r="1.643" style="fill:#f6f6f6;stroke-width:0.5px;stroke:#656565;"/></g><g id="Nav"><rect x="176.068" y="28.706" width="34.07" height="5.669" style="fill:#ff4a37;"/><rect x="221.422" y="28.706" width="34.07" height="5.669" style="fill:#ff4a37;"/><rect x="130.738" y="28.706" width="34.07" height="5.669" style="fill:#ff4a37;"/><rect x="85.359" y="28.706" width="34.07" height="5.669" style="fill:#ff4a37;"/></g><rect id="Window-head" x="0.401" y="0.359" width="340.157" height="17.008" style="fill:#d9d8d9;"/><clipPath id="_clip2"><rect x="0.401" y="0.359" width="340.157" height="17.008"/></clipPath><g clip-path="url(#_clip2)"><g id="Button"><circle cx="12.154" cy="8.76" r="3.489" style="fill:#fe6058;"/><circle cx="23.061" cy="8.76" r="3.489" style="fill:#ffbd2e;"/><circle cx="34.002" cy="8.966" r="3.489" style="fill:#29ca42;"/></g><path id="Line" d="M0.508,17.127l340.05,0" style="fill:none;stroke-width:0.5px;stroke-linecap:butt;stroke:#9d9d9d;"/></g></g><path d="M340.45,4.721c0,-1.157 -0.459,-2.266 -1.277,-3.084c-0.818,-0.818 -1.928,-1.278 -3.085,-1.278c-36.813,0 -295.116,0 -331.445,0c-1.125,0 -2.204,0.447 -3,1.243c-0.795,0.795 -1.242,1.874 -1.242,2.999c0,31.088 0,222.53 0,222.53l340.049,0c0,0 0,-190.954 0,-222.41Z" style="fill:none;stroke-width:0.35px;stroke-linecap:butt;stroke:#808080;"/></svg>