<?xml version="1.0" encoding="UTF-8" standalone="no"?><!DOCTYPE svg PUBLIC "-//W3C//DTD SVG 1.1//EN" "http://www.w3.org/Graphics/SVG/1.1/DTD/svg11.dtd"><svg width="100%" height="100%" viewBox="0 0 1590 757" version="1.1" xmlns="http://www.w3.org/2000/svg" xmlns:xlink="http://www.w3.org/1999/xlink" xml:space="preserve" style="fill-rule:evenodd;clip-rule:evenodd;stroke-linejoin:round;stroke-miterlimit:1.41421;"><g><path d="M0.544,35.944c1.161,-9.118 7.034,-16.412 17.62,-21.882c10.586,-5.471 23.71,-9.174 39.371,-11.112c15.662,-1.937 35.094,-2.906 58.296,-2.906c23.493,0 52.641,1.367 87.444,4.103c30.454,2.279 52.786,3.419 66.997,3.419c-8.12,5.926 -19.504,10.485 -34.151,13.676c-14.646,3.191 -27.625,5.072 -38.936,5.641c-11.311,0.57 -25.523,0.855 -42.635,0.855c-23.782,46.044 -47.274,102.572 -70.477,169.585c-4.64,13.905 -7.831,23.592 -9.571,29.062c-1.74,5.471 -3.335,11.796 -4.785,18.976c-1.451,7.18 -2.176,14.075 -2.176,20.686c0,3.191 0.435,6.496 1.306,9.915c-27.843,0 -42.055,-8.776 -42.635,-26.327c0,-9.117 5.076,-25.871 15.227,-50.26c6.38,-15.044 13.849,-31.398 22.405,-49.064c8.555,-17.665 15.734,-31.968 21.534,-42.909l23.493,-44.106l19.142,-35.558c-48.145,0.456 -90.635,3.191 -127.469,8.206Z" style="fill:#db7093;fill-rule:nonzero;"/><path d="M128.448,219.889c0,-20.742 12.253,-42.111 36.761,-64.107c24.508,-21.996 49.813,-32.994 75.915,-32.994c21.173,0 31.759,7.636 31.759,22.908c0,16.411 -11.312,30.999 -33.934,43.764c-22.622,12.764 -47.855,20.286 -75.698,22.565c-0.58,2.28 -0.87,4.901 -0.87,7.864c0,2.28 0.218,4.445 0.653,6.496c0.435,2.052 1.595,4.844 3.48,8.377c1.885,3.533 5.366,6.382 10.441,8.548c5.076,2.165 11.384,3.248 18.925,3.248c17.692,0 35.746,-5.642 54.163,-16.924c18.417,-11.283 33.281,-25.358 44.592,-42.226l8.701,5.471c-11.601,20.514 -28.206,37.039 -49.813,49.576c-21.607,12.537 -44.012,18.805 -67.214,18.805c-18.272,0 -32.484,-3.875 -42.635,-11.625c-10.151,-7.75 -15.226,-17.665 -15.226,-29.746ZM168.037,199.375c16.822,-1.596 34.586,-8.206 53.293,-19.831c18.707,-11.624 28.06,-23.477 28.06,-35.558c0,-4.331 -2.465,-6.496 -7.396,-6.496c-12.761,0 -26.682,6.61 -41.764,19.83c-15.081,13.221 -25.813,27.239 -32.193,42.055Z" style="fill:#db7093;fill-rule:nonzero;"/><path d="M251.13,232.198c0,-13.22 5.946,-27.922 17.837,-44.106c11.891,-16.184 27.626,-30.088 47.203,-41.712c19.577,-11.625 38.936,-17.438 58.078,-17.438c12.761,0 23.42,2.565 31.976,7.693c8.556,5.129 12.834,11.682 12.834,19.66c0,10.485 -8.266,15.955 -24.798,16.411c10.441,2.508 15.662,5.813 15.662,9.916c0,2.735 -4.133,9.63 -12.399,20.685c-8.266,11.055 -12.399,19.318 -12.399,24.788c0,8.206 4.351,12.309 13.052,12.309c8.12,0 18.489,-4.445 31.105,-13.335c12.617,-8.889 24.87,-22.224 36.762,-40.003l8.265,6.497c-10.731,18.918 -24.072,34.133 -40.024,45.644c-15.951,11.511 -32.048,17.266 -48.29,17.266c-11.601,0 -20.519,-3.02 -26.755,-9.06c-6.236,-6.041 -9.353,-12.936 -9.353,-20.686c-13.052,12.309 -24.218,21.312 -33.499,27.011c-9.281,5.698 -19.142,8.548 -29.583,8.548c-10.151,0 -18.634,-2.622 -25.45,-7.864c-6.816,-5.243 -10.224,-12.651 -10.224,-22.224ZM285.934,233.907c0,7.294 3.335,10.941 10.006,10.941c3.77,0 7.758,-0.854 11.964,-2.564c4.205,-1.709 8.773,-4.274 13.704,-7.693l13.486,-10.257c4.351,-3.419 9.281,-7.864 14.792,-13.334l13.051,-12.993l12.616,-13.334l10.441,-11.283c0.87,-1.14 2.031,-1.709 3.481,-1.709l0.87,0l0.87,0.341c1.45,-3.647 2.175,-7.863 2.175,-12.65c0,-11.853 -6.091,-17.779 -18.272,-17.779c-19.142,0 -38.791,11.169 -58.948,33.507c-20.157,22.337 -30.236,41.94 -30.236,58.807Z" style="fill:#db7093;fill-rule:nonzero;"/><path d="M532.169,212.367c0,-20.97 10.587,-40.174 31.759,-57.611c21.172,-17.437 47.565,-27.865 79.178,-31.284c-20.882,-14.588 -31.323,-31.683 -31.323,-51.286c0,-19.147 8.918,-35.9 26.755,-50.26c17.837,-14.36 40.532,-21.54 68.084,-21.54c17.402,0 30.671,3.248 39.807,9.744c9.136,6.496 13.704,15.899 13.704,28.207c0,12.993 -3.915,25.244 -11.746,36.755c-7.831,11.511 -15.952,17.266 -24.363,17.266c-7.25,0 -14.211,-4.672 -20.882,-14.018c24.943,-15.955 37.414,-30.885 37.414,-44.789c0,-6.611 -2.465,-11.853 -7.396,-15.728c-4.93,-3.875 -12.181,-5.812 -21.752,-5.812c-18.852,0 -33.644,6.097 -44.375,18.291c-10.731,12.195 -16.096,27.068 -16.096,44.619c0,23.934 10.586,42.397 31.758,55.389c-30.163,3.647 -54.816,13.733 -73.958,30.259c-19.142,16.525 -28.713,33.791 -28.713,51.798c0,12.309 4.713,23.25 14.139,32.823c9.426,9.574 23.565,14.36 42.417,14.36c30.453,0 58.151,-10.371 83.094,-31.113c24.942,-20.742 39.589,-44.22 43.939,-70.433c-9.571,0.456 -29.293,2.736 -59.166,6.838c0.29,-19.374 16.677,-29.062 49.16,-29.062c9.281,0 21.608,0.969 36.979,2.907c15.372,1.937 27.843,2.906 37.414,2.906c-4.06,6.838 -7.831,11.169 -11.311,12.992c-3.48,1.824 -7.396,2.735 -11.746,2.735c-3.771,0 -8.194,0.057 -13.269,0.171c-5.076,0.114 -8.774,0.171 -11.094,0.171c-4.06,31.456 -21.39,59.036 -51.988,82.742c-30.598,23.705 -65.039,35.558 -103.323,35.558c-27.553,0 -49.958,-6.155 -67.214,-18.463c-17.257,-12.309 -25.886,-27.353 -25.886,-45.132Z" style="fill:#db7093;fill-rule:nonzero;"/><path d="M889.341,213.393c0,-16.867 6.671,-29.005 20.012,-36.413c13.342,-7.408 29.003,-11.112 46.985,-11.112c-18.852,15.5 -28.278,31.342 -28.278,47.525c0,12.309 6.018,22.794 18.055,31.455c12.036,8.662 28.785,12.993 50.247,12.993c21.173,0 39.88,-4.103 56.121,-12.309c16.242,-8.206 24.363,-19.488 24.363,-33.848c0,-10.258 -4.858,-19.489 -14.574,-27.695c-9.716,-8.206 -21.39,-15.158 -35.021,-20.856l-41.33,-17.779c-13.631,-5.927 -25.377,-13.505 -35.238,-22.737c-9.861,-9.231 -14.792,-19.66 -14.792,-31.284c0,-12.993 5.003,-26.384 15.009,-40.174c10.006,-13.79 25.088,-25.757 45.245,-35.9c20.157,-10.144 42.272,-15.215 66.344,-15.215c36.254,0 54.381,11.967 54.381,35.9c0,11.625 -3.553,24.56 -10.659,38.806c-7.105,14.246 -15.154,26.84 -24.145,37.781c-12.761,-2.052 -19.142,-7.864 -19.142,-17.437c0,-6.383 4.133,-17.95 12.399,-34.704c8.266,-16.753 12.399,-28.207 12.399,-34.361c0,-4.331 -1.668,-7.579 -5.003,-9.745c-3.335,-2.165 -9.354,-3.248 -18.055,-3.248c-25.522,0 -47.782,7.978 -66.779,23.934c-18.997,15.955 -28.495,31.455 -28.495,46.499c0,8.889 4.785,16.924 14.356,24.104c9.571,7.18 21.172,13.449 34.804,18.805c13.631,5.357 27.19,11.112 40.676,17.266c13.487,6.155 25.016,14.189 34.587,24.105c9.57,9.915 14.356,21.369 14.356,34.361c0,22.338 -12.109,40.231 -36.326,53.679c-24.218,13.449 -51.843,20.173 -82.876,20.173c-27.553,0 -51.046,-5.471 -70.478,-16.412c-19.432,-10.941 -29.148,-26.326 -29.148,-46.157Z" style="fill:#db7093;fill-rule:nonzero;"/><path d="M1107.3,225.018c0,-15.044 5.51,-29.746 16.532,-44.106c11.021,-14.36 22.912,-21.54 35.673,-21.54c3.481,0 7.976,0.912 13.487,2.735c1.74,-10.485 6.453,-19.147 14.139,-25.985c7.685,-6.838 18.489,-10.257 32.411,-10.257c11.601,0 20.157,2.564 25.667,7.693c5.511,5.129 8.266,11.796 8.266,20.002c0,15.727 -9.571,35.102 -28.713,58.124c3.48,1.367 7.541,2.051 12.181,2.051c8.121,0 16.822,-2.108 26.103,-6.325c9.281,-4.217 16.387,-10.656 21.317,-19.318l7.831,4.445c-6.091,10.941 -14.284,19.26 -24.58,24.959c-10.296,5.698 -20.955,8.548 -31.976,8.548c-6.671,0 -13.921,-1.026 -21.752,-3.078c-24.073,22.794 -48.29,34.191 -72.653,34.191c-12.181,0 -20.882,-3.077 -26.102,-9.231c-5.221,-6.155 -7.831,-13.791 -7.831,-22.908ZM1142.1,223.992c0,10.485 4.931,15.728 14.792,15.728c10.441,0 24.363,-8.092 41.764,-24.276c-16.531,-11.396 -25.232,-28.15 -26.102,-50.26c-5.511,2.28 -11.964,10.201 -19.36,23.763c-7.396,13.562 -11.094,25.244 -11.094,35.045ZM1197.35,170.997c0,5.242 1.16,11.226 3.481,17.95c2.32,6.724 5.365,11.909 9.136,15.556c16.821,-18.918 25.232,-35.9 25.232,-50.943c0,-10.03 -4.06,-15.044 -12.181,-15.044c-6.091,0 -11.891,3.191 -17.402,9.573c-5.511,6.382 -8.266,14.018 -8.266,22.908Z" style="fill:#db7093;fill-rule:nonzero;"/><path d="M1252.17,220.915c0,-12.992 4.785,-29.005 14.356,-48.038c9.571,-19.033 17.982,-28.549 25.233,-28.549c6.091,0 12.906,2.963 20.447,8.89c-6.091,7.066 -12.399,17.209 -18.924,30.429c-6.526,13.221 -9.789,24.617 -9.789,34.191c0,13.676 4.351,20.514 13.051,20.514c7.541,0 16.822,-5.641 27.843,-16.924c11.021,-11.283 20.375,-22.737 28.061,-34.362c7.686,-11.624 14.719,-23.021 21.099,-34.19c17.402,2.279 26.103,6.154 26.103,11.625c0,0.455 -2.32,4.729 -6.961,12.821c-4.64,8.092 -9.208,17.38 -13.704,27.865c-4.495,10.485 -6.743,18.919 -6.743,25.301c0,7.978 3.771,11.967 11.311,11.967c0,0 0.145,0 0.436,0c9.57,0 21.389,-5.072 35.456,-15.215c14.066,-10.143 26.175,-23.306 36.326,-39.49l6.526,4.103c-9.861,18.463 -23.493,33.849 -40.895,46.157c-17.401,12.309 -34.223,18.463 -50.465,18.463c-5.51,0 -10.223,-0.855 -14.139,-2.564c-3.915,-1.71 -6.888,-3.704 -8.918,-5.983c-2.03,-2.28 -3.626,-5.357 -4.786,-9.232c-1.16,-3.875 -1.812,-7.18 -1.957,-9.915c-0.145,-2.735 -0.218,-6.268 -0.218,-10.599c-6.381,7.75 -11.891,13.961 -16.532,18.634c-4.64,4.672 -10.586,9.117 -17.837,13.334c-7.25,4.217 -14.211,6.325 -20.882,6.325c-9.571,0 -17.546,-3.533 -23.927,-10.599c-6.381,-7.066 -9.571,-15.386 -9.571,-24.959Z" style="fill:#db7093;fill-rule:nonzero;"/><path d="M1380.94,333.402c17.982,-41.029 30.018,-72.256 36.109,-93.682c6.091,-21.426 13.486,-59.15 22.187,-113.171c0.29,-2.279 0.653,-3.818 1.088,-4.616c0.435,-0.798 1.377,-1.538 2.828,-2.222c1.45,-0.684 3.625,-1.026 6.525,-1.026c8.411,0 14.792,1.767 19.142,5.3c4.351,3.533 6.526,7.807 6.526,12.821c0,5.471 -2.03,16.184 -6.091,32.139c21.463,-25.985 45.1,-38.977 70.913,-38.977c14.211,0 25.957,3.818 35.238,11.454c9.281,7.636 13.922,17.494 13.922,29.575c0,12.08 -4.278,24.674 -12.834,37.78c-8.556,13.107 -21.245,24.447 -38.067,34.02c-16.821,9.573 -35.093,14.36 -54.815,14.36c-8.991,0 -16.314,-0.912 -21.97,-2.735c-5.656,-1.824 -8.483,-3.875 -8.483,-6.155c0,-2.279 3.48,-3.419 10.441,-3.419c25.812,-0.455 47.492,-8.034 65.039,-22.736c17.547,-14.702 26.32,-30.373 26.32,-47.012c0,-7.294 -2.03,-13.335 -6.09,-18.121c-4.061,-4.787 -10.152,-7.18 -18.272,-7.18c-13.342,0 -26.828,5.812 -40.46,17.437c-13.631,11.625 -23.782,23.363 -30.453,35.216c-4.06,11.169 -8.556,24.503 -13.486,40.003l-11.746,38.977c-3.191,10.257 -6.743,20.401 -10.659,30.43c-3.915,10.029 -7.976,17.551 -12.181,22.566c-4.206,5.014 -8.629,7.522 -13.269,7.522c-3.48,0 -7.178,-1.026 -11.094,-3.078c-3.915,-2.051 -6.018,-3.874 -6.308,-5.47Z" style="fill:#db7093;fill-rule:nonzero;"/><g><path d="M980.735,667.269c-15.904,11.966 -19.095,13.431 -18.786,18.25c0.553,8.605 62.127,19.638 68.752,29.625c17.414,26.248 -60.218,27.292 -68.752,25.629c-108.572,-21.155 -282.389,-36.887 -273.087,0c7.16,28.394 -137.867,9.534 -176.304,7.919c-47.533,-1.998 -28.824,-46.192 -63.421,-40.697c-27.734,4.405 -90.14,19.361 -148.477,23.583c-138.658,10.033 -241.537,11.099 -253.751,-26.018c-10.855,-32.984 38.322,-39.715 76.957,-38.291c109.95,4.054 190.429,-4.864 294.773,-30.042c37.111,-8.955 31.164,-7.181 50.674,-46.765c30.675,-62.233 77.137,-105.491 115.487,-122.818c70.259,-31.745 151.184,-43.614 303.804,-9.763c34.662,7.688 43.276,17.341 75.099,-15.569c8.92,-9.226 26.809,-20.834 55.825,-26.086c8.073,-1.462 26.383,1.611 39.642,0c7.951,-0.966 55.269,-14.672 62.553,-10.773c7.247,3.88 -4.433,19.6 -11.84,26.999c0,0 21.533,-4.228 28.217,-1.427c5.802,2.432 -24.634,24.121 -23.366,25.952c6.32,9.13 16.208,22.73 20.917,36.026c12.621,35.641 -2.695,39.472 -3.455,49.542c-0.913,12.101 7.746,25.412 3.536,31.995c-1.708,2.669 -5.104,9.995 -13.993,8.087c-5.537,-1.189 -8.773,13.092 -21.695,13.146c-7.372,0.03 -9.397,6.437 -20.314,2.101c-14.828,-5.889 -20.194,-8.692 -28.399,-7.412c-8.205,1.28 -12.225,3.321 -20.63,15.293c-9.759,13.9 -19.848,38.854 -49.966,61.514Z" style="fill:#db7093;"/><g><path d="M1327.99,739.81c-66.081,-16.367 -113.874,-63.476 -113.874,-118.975l0.001,-0.106c0.289,-18.104 74.196,-32.783 165.188,-32.783c91.17,0 165.188,14.737 165.188,32.889l-0.003,0.809c-0.461,55.147 -48.11,101.879 -113.871,118.166l-102.629,0ZM1379.31,597.905c83.845,0 151.917,10.156 151.917,22.664c0,12.508 -68.072,22.664 -151.917,22.664c-83.845,0 -151.917,-10.156 -151.917,-22.664c0,-12.508 68.072,-22.664 151.917,-22.664Z" style="fill:#db7093;"/></g></g></g></svg>
